# xmcd
#
# Track frame offsets: 
#        150
#        22030
#        38865
#        57542
#        78012
#        93257
#        109915
#        127964
#        141665
#        161759
#        179858
#        196909
#        218325
#        237923
#        258000
#        285233
#        305711
#
# Disc length: 4326 seconds
#
# Revision: 3
# Processed by: cddbd v1.5.2PL0 Copyright (c) Steve Scherf et al.
# Submitted via: ExactAudioCopy v1.3
#
DISCID=ef10e411
DTITLE=張敬軒 - 是時候 CD3
DYEAR=2013
DGENRE=Pop
TTITLE0=感情用事
TTITLE1=餘震
TTITLE2=騷靈情歌
TTITLE3=笑忘書
TTITLE4=無需要太多
TTITLE5=老了十歲
TTITLE6=張敬軒 and 倫永亮 - 從何唱起
TTITLE7=過雲雨
TTITLE8=Hurt So Bad
TTITLE9=絕頂愛情[
TTITLE10=張敬軒 and 王菀之 - 手望 (守望版)
TTITLE11=張敬軒  and Secret Garden - 總在我身旁
TTITLE12=無能為力
TTITLE13=春天
TTITLE14=Blessing
TTITLE15=孤單公園
TTITLE16=My Way
EXTD=
EXTT0=
EXTT1=
EXTT2=
EXTT3=
EXTT4=
EXTT5=
EXTT6=
EXTT7=
EXTT8=
EXTT9=
EXTT10=
EXTT11=
EXTT12=
EXTT13=
EXTT14=
EXTT15=
EXTT16=
PLAYORDER=
